<?xml version="1.0" encoding="utf-8"?>
<!-- Generator: Adobe Illustrator 26.0.1, SVG Export Plug-In . SVG Version: 6.00 Build 0)  -->
<svg version="1.1" id="Слой_1" xmlns="http://www.w3.org/2000/svg" xmlns:xlink="http://www.w3.org/1999/xlink" x="0px" y="0px"
	 viewBox="0 0 300 300" style="enable-background:new 0 0 300 300;" xml:space="preserve">
<style type="text/css">
	.st0{fill:#202020;}
</style>
<g>
	<polygon class="st0" points="130,138.8 130,83.4 102.4,138.7 	"/>
	<path class="st0" d="M170,139.1l129.7,0.8C295,67.8,240.1,9.4,170,0V139.1z"/>
	<path class="st0" d="M126.7,0.5C54.9,11.8,0,74.4,0,150v0c0,25.2,6.1,49,16.9,69.9L126.7,0.5z"/>
	<polygon class="st0" points="300,150 300,150 300,150 	"/>
	<path class="st0" d="M130,159l-37.7-0.2l-48.9,97.7c22.8,23.2,52.9,39,86.6,43.5V159z"/>
	<path class="st0" d="M170,159.3V300c70.1-9.4,125-67.8,129.7-139.9L170,159.3z"/>
</g>
</svg>
